PathFileType	4	(X/Y/Z)	/Users/niels/Desktop/University/Third Semester/Perception and Action/Exam/Gymnastics Motion Tracking/Code for Gym Tracking/Analyzed Data/Webcam_Backflip/id1_8_trajectory_Sports2D/id1_8_trajectory_Sports2D_px_person00.trc
DataRate	CameraRate	NumFrames	NumMarkers	Units	OrigDataRate	OrigDataStartFrame	OrigNumFrames
29.71698113207547	29.71698113207547	11	22	m	29.71698113207547	92	106
Frame#	Time	Hip			RHip			RKnee			RAnkle			RBigToe			RSmallToe			RHeel			LHip			LKnee			LAnkle			LBigToe			LSmallToe			LHeel			Neck			Head			Nose			RShoulder			RElbow			RWrist			LShoulder			LElbow			LWrist		
		X1	Y1	Z1	X2	Y2	Z2	X3	Y3	Z3	X4	Y4	Z4	X5	Y5	Z5	X6	Y6	Z6	X7	Y7	Z7	X8	Y8	Z8	X9	Y9	Z9	X10	Y10	Z10	X11	Y11	Z11	X12	Y12	Z12	X13	Y13	Z13	X14	Y14	Z14	X15	Y15	Z15	X16	Y16	Z16	X17	Y17	Z17	X18	Y18	Z18	X19	Y19	Z19	X20	Y20	Z20	X21	Y21	Z21	X22	Y22	Z22
92	3.0958730158730154	0.7575359134817208	-0.4149508897399024	0.0	0.7487114836306447	-0.41090507898015827	0.0	0.7297097108984144	-0.5431689478407157	0.0	0.6529581532267568	-0.6356203198674163	0.0	0.6791703646335012	-0.6858995874737137	0.0	0.6636535399852455	-0.6836472554083328	0.0	0.6364446474566737	-0.6414907664448903	0.0	0.7680540506125281	-0.42302135783823624	0.0	0.7518373269807389	-0.5484286766965347	0.0	0.6820469382092031	-0.6356330994554362	0.0	0.7151197135674735	-0.6821466215107086	0.0	0.7119845068744092	-0.6769253101117633	0.0	0.6653402779214277	-0.6420578924355581	0.0	0.8891946985752586	-0.4500729416150367	0.0	0.9306991095163162	-0.51558894219712	0.0	0.8889905561486994	-0.5015791502634959	0.0	0.879997982206266	-0.4290061096216009	0.0	0.8093807233071209	-0.3933624168093527	0.0	0.7882017538147948	-0.44809883802865674	0.0	0.8853812779490766	-0.438250180622853	0.0	0.8094452778348172	-0.41225994979973535	0.0	0.7929901944936874	-0.457122913974005	0.0
93	3.129523809523809	0.743121788696462	-0.4665507956038444	0.0	0.7340507314003247	-0.46194442600325375	0.0	0.7310574016936481	-0.5935901911198972	0.0	0.6682394277606236	-0.7048320505520369	0.0	0.7025734398971049	-0.7469201747281272	0.0	0.68658178399874	-0.7466099781935397	0.0	0.6536152471789406	-0.7151963107503806	0.0	0.7567223324767489	-0.47386003472538396	0.0	0.7564207375439779	-0.5987201697535325	0.0	0.7063028428828725	-0.7019072878481373	0.0	0.7456537554269815	-0.7397633987827941	0.0	0.7402413257972206	-0.7353688407893548	0.0	0.6916771335791645	-0.7125420299105902	0.0	0.8815043695592552	-0.45806629291093354	0.0	0.937707345036828	-0.5154657100835403	0.0	0.893638079387639	-0.5077516683793228	0.0	0.8697882967515004	-0.4383221100667574	0.0	0.8005336329097559	-0.4147783669377899	0.0	0.7837794984245408	-0.46069772007644927	0.0	0.8735232673678825	-0.4466421457634474	0.0	0.7976555329232451	-0.4283880349208725	0.0	0.7787049521159748	-0.4674086550118227	0.0
94	3.163174603174603	0.7332796895296497	-0.5212302202510258	0.0	0.7241779436239808	-0.5168071921998295	0.0	0.7346426130562927	-0.6455776500933503	0.0	0.6827086247010566	-0.7682553931132404	0.0	0.7218160266409189	-0.8026347834364336	0.0	0.7068185275867273	-0.8037531768741253	0.0	0.6699245736083538	-0.7815738209029058	0.0	0.7493140152059563	-0.5269599330613531	0.0	0.7620357678733934	-0.6491305954909802	0.0	0.7279987195943748	-0.7620138512696137	0.0	0.7696690849365088	-0.7926240364001144	0.0	0.7617829061510936	-0.7892355065936462	0.0	0.7155238375217524	-0.7754908139230242	0.0	0.868250533969927	-0.4718850880370147	0.0	0.9357226255071984	-0.5188459709459317	0.0	0.8907188885174344	-0.5177933677822132	0.0	0.8535235283163898	-0.4545013022358952	0.0	0.7854797975739101	-0.44551142474306826	0.0	0.7683376796710237	-0.4788038587345928	0.0	0.8562684814911615	-0.4605371825276362	0.0	0.7817878786131096	-0.4514716812194997	0.0	0.7579253441626344	-0.48547849097751367	0.0
95	3.1968253968253966	0.7275504769117024	-0.5757303920982441	0.0	0.7184637558168954	-0.5719086479616616	0.0	0.739710129144052	-0.6969865504692425	0.0	0.6939546451555766	-0.8243010308870681	0.0	0.7352623699207292	-0.8524696239323375	0.0	0.7226383187951849	-0.854360648074017	0.0	0.6825995601687632	-0.8389475439490153	0.0	0.7451293041607766	-0.5793829005123011	0.0	0.7681256122565056	-0.6980142416051199	0.0	0.7445550375027904	-0.8154734292706785	0.0	0.7859730995375711	-0.8411742650423379	0.0	0.775668386785918	-0.8387793575961436	0.0	0.733790453174151	-0.8302118822207795	0.0	0.8509269073420073	-0.49152985339783434	0.0	0.9263463649166365	-0.5264056006773905	0.0	0.8815576647411948	-0.5323306071658458	0.0	0.8325066288152381	-0.4776449140554858	0.0	0.7649834083692885	-0.4859200783687989	0.0	0.7423001990474494	-0.5055064684380715	0.0	0.835582425516874	-0.4805763148899439	0.0	0.7641988039823729	-0.4828608827241052	0.0	0.7344375063026152	-0.5154793434800304	0.0
96	3.23047619047619	0.7243306983251881	-0.6265357289524578	0.0	0.7150582452331443	-0.6233768568637365	0.0	0.744480570659	-0.7449169216977912	0.0	0.7009316852267268	-0.8715467417329459	0.0	0.7434120263508085	-0.8953031775892375	0.0	0.7336809833154754	-0.897561184233056	0.0	0.6905126460229246	-0.8863098767413484	0.0	0.7424773210278198	-0.628069627194949	0.0	0.7736192641699395	-0.7428873114469204	0.0	0.7551367053278433	-0.8613670437393797	0.0	0.795540720834376	-0.8846047991513277	0.0	0.7831991272112837	-0.8829937250558383	0.0	0.7455043000501633	-0.8761038293342741	0.0	0.8313740546739401	-0.5155929621381338	0.0	0.9118653167922334	-0.5374816646978814	0.0	0.8683281766305163	-0.5504400850092913	0.0	0.8088643553412824	-0.5059102760595702	0.0	0.7415791589086769	-0.5317657846831858	0.0	0.7102441685747822	-0.5405661985567574	0.0	0.8139015886501971	-0.5061111740180579	0.0	0.7472360051638277	-0.5215100589019135	0.0	0.7110214266768935	-0.556585643964481	0.0
97	3.2641269841269835	0.7211965728182727	-0.6701702330844164	0.0	0.7113511474291168	-0.6675683587829436	0.0	0.7468815415102132	-0.7859634788795915	0.0	0.7040071187083135	-0.9086655958985803	0.0	0.7478587680224351	-0.9298957436368613	0.0	0.7400571441406145	-0.9326287023498496	0.0	0.6941060773164027	-0.9230276792231598	0.0	0.7390965395211953	-0.6699041093842644	0.0	0.7770691836138091	-0.7805441162556321	0.0	0.760480060724814	-0.8981227338247159	0.0	0.8005071166552858	-0.9209840739867822	0.0	0.7865986508997936	-0.9198493483480682	0.0	0.751476681014734	-0.9122592833102617	0.0	0.8114812909325303	-0.5412694537918528	0.0	0.8945968346859938	-0.5503783962141264	0.0	0.8531484788800303	-0.5699152574699428	0.0	0.7851601002068097	-0.53587093646383	0.0	0.7189053871152649	-0.5763299984810396	0.0	0.6795804497291196	-0.5823848512335436	0.0	0.7933267539837617	-0.534446565948995	0.0	0.7323323451833224	-0.5640053252937999	0.0	0.6901573944795787	-0.6040359029164195	0.0
98	3.2977777777777773	0.7155858552007616	-0.7036853747830245	0.0	0.7047998415556824	-0.70154555592671	0.0	0.7455456372117498	-0.8167481897606744	0.0	0.7043656001059766	-0.9345265338249231	0.0	0.7500814832585834	-0.9549393954522074	0.0	0.7421892278873993	-0.95865899582033	0.0	0.6946771021109179	-0.9484606278041743	0.0	0.732869187573926	-0.702107859642497	0.0	0.7771364877626907	-0.8077831808119427	0.0	0.762151901015518	-0.9238748401228706	0.0	0.8030290765741737	-0.9476898638245397	0.0	0.7879789638773711	-0.9466869707973982	0.0	0.7534685116630573	-0.9372725795456183	0.0	0.7925630881238347	-0.5648159921341285	0.0	0.8763391251587606	-0.5628175335352789	0.0	0.8373193004167981	-0.5878702343634646	0.0	0.7634309326023476	-0.5633767110195633	0.0	0.7005998764090587	-0.6148657661972843	0.0	0.6582335635104569	-0.6285587986036097	0.0	0.774795739941976	-0.5610833587742504	0.0	0.7201511740608845	-0.6051049903568619	0.0	0.6754708913122354	-0.65101604673697	0.0
99	3.331428571428571	0.7055170334861749	-0.7249794707328727	0.0	0.6936538049046187	-0.7232452840924705	0.0	0.740162624524781	-0.8345567798995966	0.0	0.7032707787417766	-0.9483053414487903	0.0	0.7510835461236929	-0.9686470219975641	0.0	0.7413332217124015	-0.9739880944631717	0.0	0.6936332810867367	-0.9617754840190544	0.0	0.7223694193331208	-0.722580203264313	0.0	0.7730685098412986	-0.8220775196491441	0.0	0.7615591078812527	-0.9368725600912733	0.0	0.8042241305005265	-0.9616200645358013	0.0	0.7887921106682294	-0.9603763903757475	0.0	0.7531415825346224	-0.9493303022750604	0.0	0.7750038375619849	-0.5826984457236081	0.0	0.8581034583249488	-0.5725068370319961	0.0	0.821258177302505	-0.6016108631889625	0.0	0.7445705785592306	-0.5846077323827978	0.0	0.6891214351262053	-0.6455311101008001	0.0	0.6522036551225736	-0.6739131745734435	0.0	0.7581029792222467	-0.5815085837337862	0.0	0.7113227712716479	-0.6395809709662991	0.0	0.6711143666801094	-0.6910065769447665	0.0
100	3.3650793650793647	0.6900510589157862	-0.7330730630377444	0.0	0.6771985103930913	-0.7316673269944414	0.0	0.730996537076622	-0.8379082390113706	0.0	0.7016133723597602	-0.9495364106802464	0.0	0.7513955534728549	-0.9691159404964065	0.0	0.7392157148745324	-0.9765300139974651	0.0	0.6920734802639565	-0.9624432042693737	0.0	0.7071162186781811	-0.7302357654251016	0.0	0.7647875982682647	-0.8219616371351504	0.0	0.7590528382074679	-0.9358587445266798	0.0	0.8037475578776638	-0.9600502882055724	0.0	0.7892192235919648	-0.9582558832082062	0.0	0.7510457609565274	-0.9472250850563404	0.0	0.7584761249337993	-0.5928009847919185	0.0	0.840200749963229	-0.5777207097998849	0.0	0.8049729833662704	-0.6094025061777901	0.0	0.7284045313168328	-0.5970484736480844	0.0	0.6851179599250435	-0.6667630794410421	0.0	0.6628852299424517	-0.7100420638819849	0.0	0.7426526459900427	-0.593122815712793	0.0	0.7066244666810316	-0.6633291713868811	0.0	0.6791516844782464	-0.7185440361748107	0.0
101	3.3987301587301584	0.6694253402032261	-0.7284525651554246	0.0	0.6557262671894366	-0.7273242611006345	0.0	0.7183139900248089	-0.8270293883846758	0.0	0.6997467337312756	-0.9384094500736697	0.0	0.7510739732379936	-0.9557280404928855	0.0	0.7370543781250789	-0.965163109211645	0.0	0.6906453655019866	-0.9510114657569834	0.0	0.6876450068042173	-0.7254404826622286	0.0	0.7526631202275089	-0.8074475373766511	0.0	0.7535961372878143	-0.9207160725416547	0.0	0.800042084467705	-0.9424319549237288	0.0	0.7877187025760454	-0.9400288946126194	0.0	0.7461711693165659	-0.9315200584330386	0.0	0.7423715215934291	-0.5948759067833882	0.0	0.822532708905524	-0.5778252742317092	0.0	0.7884348412256967	-0.61082584936109	0.0	0.7140746057966786	-0.6000391880643993	0.0	0.6873287456121344	-0.6764332995788672	0.0	0.6862360333900311	-0.7288451794607195	0.0	0.7280190582306972	-0.5957768733756519	0.0	0.7064276076406782	-0.6737634599585075	0.0	0.6976766644694768	-0.7293015964757409	0.0
102	3.432380952380952	0.6448060723430526	-0.713147966287455	0.0	0.6303806851054808	-0.7124467314158245	0.0	0.7023182823485912	-0.8039721256837528	0.0	0.6975555992722589	-0.9161964198237426	0.0	0.7499300697805563	-0.9299248943671904	0.0	0.7352247654386989	-0.9409785291911347	0.0	0.689590561626818	-0.9291886094198826	0.0	0.6651834605874423	-0.7101654272474238	0.0	0.7372836392434224	-0.780323379257085	0.0	0.7433510511478206	-0.8930684212678152	0.0	0.790815521513345	-0.9111867611588579	0.0	0.781430013657681	-0.908520537564427	0.0	0.7365055401299904	-0.9045123548058184	0.0	0.7260572456976316	-0.5901140835711054	0.0	0.8048287300897417	-0.5734616046840163	0.0	0.7715882192392354	-0.6066327555020044	0.0	0.7004644716779436	-0.5946323982702072	0.0	0.6930346814008225	-0.6734111112216488	0.0	0.7150012637218267	-0.7266911382794095	0.0	0.7138514894592852	-0.5909870139956083	0.0	0.7100416804795077	-0.6705444074439216	0.0	0.7217079287122296	-0.7216616115770029	0.0
